<?xml version="1.0" encoding="UTF-8" standalone="no"?>
<svg
   width="16"
   height="16"
   fill="currentColor"
   class="bi bi-flower1"
   viewBox="0 0 16 16"
   version="1.1"
   id="svg1"
   sodipodi:docname="flower1.svg"
   inkscape:version="1.3.2 (091e20e, 2023-11-25)"
   xmlns:inkscape="http://www.inkscape.org/namespaces/inkscape"
   xmlns:sodipodi="http://sodipodi.sourceforge.net/DTD/sodipodi-0.dtd"
   xmlns="http://www.w3.org/2000/svg"
   xmlns:svg="http://www.w3.org/2000/svg">
  <defs
     id="defs1" />
  <sodipodi:namedview
     id="namedview1"
     pagecolor="#505050"
     bordercolor="#ffffff"
     borderopacity="1"
     inkscape:showpageshadow="0"
     inkscape:pageopacity="0"
     inkscape:pagecheckerboard="1"
     inkscape:deskcolor="#505050"
     inkscape:zoom="34.571128"
     inkscape:cx="7.9690775"
     inkscape:cy="8.0558551"
     inkscape:window-width="1440"
     inkscape:window-height="788"
     inkscape:window-x="0"
     inkscape:window-y="25"
     inkscape:window-maximized="1"
     inkscape:current-layer="svg1" />
  <path
     d="M6.174 1.184a2 2 0 0 1 3.652 0A2 2 0 0 1 12.99 3.01a2 2 0 0 1 1.826 3.164 2 2 0 0 1 0 3.652 2 2 0 0 1-1.826 3.164 2 2 0 0 1-3.164 1.826 2 2 0 0 1-3.652 0A2 2 0 0 1 3.01 12.99a2 2 0 0 1-1.826-3.164 2 2 0 0 1 0-3.652A2 2 0 0 1 3.01 3.01a2 2 0 0 1 3.164-1.826M8 1a1 1 0 0 0-.998 1.03l.01.091q.017.116.054.296c.049.241.122.542.213.887.182.688.428 1.513.676 2.314L8 5.762l.045-.144c.248-.8.494-1.626.676-2.314.091-.345.164-.646.213-.887a5 5 0 0 0 .064-.386L9 2a1 1 0 0 0-1-1M2 9l.03-.002.091-.01a5 5 0 0 0 .296-.054c.241-.049.542-.122.887-.213a61 61 0 0 0 2.314-.676L5.762 8l-.144-.045a61 61 0 0 0-2.314-.676 17 17 0 0 0-.887-.213 5 5 0 0 0-.386-.064L2 7a1 1 0 1 0 0 2m7 5-.002-.03a5 5 0 0 0-.064-.386 16 16 0 0 0-.213-.888 61 61 0 0 0-.676-2.314L8 10.238l-.045.144c-.248.8-.494 1.626-.676 2.314-.091.345-.164.646-.213.887a5 5 0 0 0-.064.386L7 14a1 1 0 1 0 2 0m-5.696-2.134.025-.017a5 5 0 0 0 .303-.248c.184-.164.408-.377.661-.629A61 61 0 0 0 5.96 9.23l.103-.111-.147.033a61 61 0 0 0-2.343.572c-.344.093-.64.18-.874.258a5 5 0 0 0-.367.138l-.027.014a1 1 0 1 0 1 1.732zM4.5 14.062a1 1 0 0 0 1.366-.366l.014-.027q.014-.03.036-.084a5 5 0 0 0 .102-.283c.078-.233.165-.53.258-.874a61 61 0 0 0 .572-2.343l.033-.147-.11.102a61 61 0 0 0-1.743 1.667 17 17 0 0 0-.629.66 5 5 0 0 0-.248.304l-.017.025a1 1 0 0 0 .366 1.366m9.196-8.196a1 1 0 0 0-1-1.732l-.025.017a5 5 0 0 0-.303.248 17 17 0 0 0-.661.629A61 61 0 0 0 10.04 6.77l-.102.111.147-.033a61 61 0 0 0 2.342-.572c.345-.093.642-.18.875-.258a5 5 0 0 0 .367-.138zM11.5 1.938a1 1 0 0 0-1.366.366l-.014.027q-.014.03-.036.084a5 5 0 0 0-.102.283c-.078.233-.165.53-.258.875a61 61 0 0 0-.572 2.342l-.033.147.11-.102a61 61 0 0 0 1.743-1.667c.252-.253.465-.477.629-.66a5 5 0 0 0 .248-.304l.017-.025a1 1 0 0 0-.366-1.366M14 9a1 1 0 0 0 0-2l-.03.002a5 5 0 0 0-.386.064c-.242.049-.543.122-.888.213-.688.182-1.513.428-2.314.676L10.238 8l.144.045c.8.248 1.626.494 2.314.676.345.091.646.164.887.213a5 5 0 0 0 .386.064zM1.938 4.5a1 1 0 0 0 .393 1.38l.084.035q.108.045.283.103c.233.078.53.165.874.258a61 61 0 0 0 2.343.572l.147.033-.103-.111a61 61 0 0 0-1.666-1.742 17 17 0 0 0-.66-.629 5 5 0 0 0-.304-.248l-.025-.017a1 1 0 0 0-1.366.366m2.196-1.196.017.025a5 5 0 0 0 .248.303c.164.184.377.408.629.661A61 61 0 0 0 6.77 5.96l.111.102-.033-.147a61 61 0 0 0-.572-2.342c-.093-.345-.18-.642-.258-.875a5 5 0 0 0-.138-.367l-.014-.027a1 1 0 1 0-1.732 1m9.928 8.196a1 1 0 0 0-.366-1.366l-.027-.014a5 5 0 0 0-.367-.138c-.233-.078-.53-.165-.875-.258a61 61 0 0 0-2.342-.572l-.147-.033.102.111a61 61 0 0 0 1.667 1.742c.253.252.477.465.66.629a5 5 0 0 0 .304.248l.025.017a1 1 0 0 0 1.366-.366m-3.928 2.196a1 1 0 0 0 1.732-1l-.017-.025a5 5 0 0 0-.248-.303 17 17 0 0 0-.629-.661A61 61 0 0 0 9.23 10.04l-.111-.102.033.147a61 61 0 0 0 .572 2.342c.093.345.18.642.258.875a5 5 0 0 0 .138.367zM8 9.5a1.5 1.5 0 1 0 0-3 1.5 1.5 0 0 0 0 3"
     id="path1" />
  <path
     style="fill:#4396ff;fill-opacity:1;stroke-width:0.0289259"
     d="m 10.205311,6.616793 c 0.388557,-0.4288994 1.526262,-1.5977098 1.857112,-1.9078855 0.585455,-0.5488707 0.678971,-0.6142811 0.96145,-0.6724979 0.406602,-0.083797 0.850708,0.1445242 1.050231,0.5399386 0.07357,0.1458037 0.08455,0.1994141 0.08481,0.4139728 2.66e-4,0.2205126 -0.0097,0.2668225 -0.09478,0.4395969 -0.178536,0.3626573 -0.351497,0.4599176 -1.307833,0.7354262 -0.638473,0.1839363 -2.622637,0.6756244 -2.726422,0.6756244 -0.01522,0 0.06372,-0.1008789 0.175424,-0.2241755 z"
     id="path4" />
  <path
     style="fill:#4396ff;fill-opacity:1;stroke-width:0.0289259"
     d="m 10.177008,6.6746448 c 0.190718,-0.225525 1.585538,-1.6571463 1.928469,-1.9793497 0.618611,-0.5812209 0.726181,-0.6451463 1.08472,-0.6446138 0.198177,2.943e-4 0.272334,0.013381 0.382295,0.067464 0.208855,0.102723 0.38499,0.2746418 0.483644,0.4720662 0.0756,0.1512834 0.08861,0.2097077 0.08861,0.3977059 0,0.1904099 -0.01316,0.2478367 -0.09681,0.4223824 -0.161102,0.3361634 -0.30944,0.4329188 -0.991068,0.6464387 -0.574621,0.1799997 -2.831972,0.7553041 -2.963626,0.7553041 -0.01784,0 0.01986,-0.061829 0.08376,-0.1373979 z"
     id="path5" />
  <path
     style="fill:#4396ff;fill-opacity:1;stroke-width:0.0289259"
     d="m 10.176348,6.6740525 c 0.168428,-0.2011692 1.187391,-1.2542144 1.694476,-1.751154 0.572678,-0.5612196 0.84491,-0.7802802 1.049738,-0.8447066 0.333292,-0.1048328 0.72334,0.00311 0.967196,0.2676627 0.281263,0.3051341 0.339287,0.690716 0.160182,1.0644453 -0.157005,0.3276144 -0.304945,0.4276907 -0.930057,0.6291537 -0.513865,0.1656096 -2.883764,0.7721724 -3.018216,0.7724956 -0.02175,5.24e-5 0.01199,-0.060632 0.07668,-0.1378967 z"
     id="path6" />
  <path
     style="fill:#4396ff;fill-opacity:1;stroke-width:0.0289259"
     d="m 10.138428,6.7180336 c 0.185354,-0.2252215 1.624489,-1.7075208 1.96354,-2.0224327 0.467346,-0.4340721 0.629005,-0.5556455 0.822213,-0.6183366 0.324401,-0.1052594 0.720832,0.00524 0.963577,0.2685903 0.281263,0.3051341 0.339287,0.690716 0.160182,1.0644453 -0.157003,0.3276107 -0.304925,0.4276759 -0.930057,0.6291623 -0.531341,0.1712562 -2.880027,0.7725805 -3.017588,0.7725805 -0.02521,0 -0.01157,-0.033612 0.03813,-0.094009 z"
     id="path7" />
  <path
     style="fill:#4396ff;fill-opacity:1;stroke-width:0.0289259"
     d="m 10.112316,6.7469594 c 0.351595,-0.4154578 2.003026,-2.0934304 2.336253,-2.3738007 0.325746,-0.2740763 0.439369,-0.3236015 0.741628,-0.3232542 0.189997,2.184e-4 0.276605,0.014423 0.381118,0.062506 0.194084,0.089292 0.384829,0.2776992 0.485886,0.4799324 0.07446,0.1490018 0.08755,0.2081601 0.08755,0.395575 0,0.1904099 -0.01316,0.2478367 -0.09681,0.4223824 -0.09523,0.1987036 -0.229595,0.3472285 -0.388451,0.4293762 -0.146926,0.075978 -0.665166,0.2452742 -1.198416,0.3914916 -0.664042,0.1820805 -2.275097,0.5803687 -2.348733,0.5806583 -0.05418,2.13e-4 -0.05418,-8.74e-4 -2.4e-5,-0.064867 z"
     id="path8" />
  <path
     style="fill:#4396ff;fill-opacity:1;stroke-width:0.0289259"
     d="m 10.123335,6.7324965 c 0.03373,-0.04375 0.408904,-0.4429641 0.833718,-0.8871417 0.816073,-0.8532723 1.486627,-1.4954414 1.726941,-1.6538401 0.490017,-0.3229849 1.138172,-0.1181647 1.393932,0.4404893 0.0631,0.1378334 0.07116,0.1896848 0.06146,0.3955655 -0.0089,0.1896652 -0.02805,0.2707105 -0.09581,0.4062034 -0.167031,0.3339944 -0.40429,0.4638912 -1.330658,0.728522 -0.559075,0.1597083 -2.516071,0.6497478 -2.594797,0.6497478 -0.05428,0 -0.05411,-0.00261 0.0052,-0.079546 z"
     id="path9" />
  <path
     style="fill:#4396ff;fill-opacity:1;stroke-width:0.0289259"
     d="m 9.1695012,5.9350548 c 0,-0.023804 0.065429,-0.3210899 0.1453981,-0.6606351 0.3110401,-1.3206628 0.6500794,-2.5493506 0.7920217,-2.8703063 0.07966,-0.1801302 0.275464,-0.3911004 0.441036,-0.4752021 0.650532,-0.3304344 1.427354,0.1472294 1.427354,0.877673 0,0.2332523 -0.07083,0.4260891 -0.230511,0.627598 C 11.516856,3.7218305 10.876063,4.3775 10.116976,5.0997977 9.2418194,5.93254 9.1695012,5.9962932 9.1695012,5.9350548 Z"
     id="path10" />
  <path
     style="fill:#4396ff;fill-opacity:1;stroke-width:0.0289259"
     d="M 7.7297798,4.8222783 C 7.2170857,3.1076116 7.0460735,2.402241 7.0445407,1.9958851 7.0435316,1.7283497 7.0498851,1.695008 7.1291412,1.5519208 7.2415917,1.3489055 7.4546013,1.1607689 7.6595235,1.0834709 7.8887136,0.99701891 8.2237357,1.0133884 8.4345461,1.1213392 8.6314936,1.2221912 8.8512334,1.4672588 8.9217319,1.6646794 9.0244712,1.9523857 8.9787074,2.2755825 8.6741386,3.4132528 8.5484846,3.882614 8.018804,5.6864219 8.0013184,5.7045173 7.9980654,5.7078837 7.8758731,5.3108761 7.7297798,4.8222783 Z"
     id="path11" />
  <path
     style="fill:#4396ff;fill-opacity:1;stroke-width:0.0289259"
     d="M 6.2602503,5.460667 C 5.4667004,4.7157018 4.5970902,3.8417383 4.3337733,3.5245455 4.0639733,3.1995434 4.0078353,3.0555225 4.0268569,2.7371577 4.0463176,2.4114435 4.1788329,2.1733275 4.4386669,1.9971787 4.7516901,1.7849714 5.0913371,1.7602438 5.4293097,1.9250559 5.7729746,2.092644 5.8893393,2.2955095 6.145371,3.1734078 6.337124,3.8309029 6.8673862,5.9708795 6.8442791,5.9939866 6.8400374,5.9982283 6.5772245,5.7582344 6.2602503,5.460667 Z"
     id="path12" />
  <path
     style="fill:#4396ff;fill-opacity:1;stroke-width:0.0289259"
     d="M 5.6694707,6.7786073 C 3.5455144,6.2781305 2.5030014,5.9793794 2.2335237,5.7939739 1.9674683,5.610923 1.8085829,5.2777854 1.8292486,4.946324 1.8449903,4.6938388 1.9225665,4.5140282 2.0955336,4.3291123 2.2862485,4.1252226 2.523251,4.0232153 2.8058095,4.0234051 c 0.3578722,2.405e-4 0.4702019,0.067919 1.128109,0.679683 0.3096179,0.2879025 1.6179744,1.638817 1.9514685,2.0149455 0.1233319,0.1390988 0.1205937,0.1398669 -0.2159163,0.060574 z"
     id="path13" />
  <path
     style="fill:#4396ff;fill-opacity:1;stroke-width:0.0289259"
     d="M 1.7160034,8.9398444 C 1.4607755,8.8600394 1.204653,8.6304764 1.0904067,8.3791211 0.99511043,8.1694581 1.0031979,7.8057336 1.1079666,7.5893853 1.2008055,7.3976722 1.4215433,7.1806362 1.6135653,7.0922658 1.9191869,6.9516156 2.4206314,7.0379376 4.0975553,7.5198765 5.2775023,7.8589868 5.6690875,7.9787255 5.669303,8.0004846 5.6696099,8.031483 3.7612098,8.5901714 3.0106402,8.7788141 2.1989087,8.9828288 1.95178,9.0135673 1.7160034,8.9398444 Z"
     id="path14" />
  <path
     style="fill:#4396ff;fill-opacity:1;stroke-width:0.0289259"
     d="M 2.496298,11.93591 C 2.2212315,11.840867 2.0567231,11.69462 1.9061295,11.411256 1.847057,11.300102 1.8370066,11.240952 1.8373216,11.006294 c 3.057e-4,-0.227643 0.011741,-0.297807 0.06664,-0.4089 C 2.0785858,10.244034 2.2871802,10.117125 3.0806053,9.881527 3.784724,9.6724471 5.9500228,9.1366896 5.9779689,9.1646356 6.005894,9.1925608 4.3180361,10.943919 3.8328608,11.390447 3.3871859,11.80062 3.2749167,11.881706 3.0673114,11.943358 2.8657326,12.00322 2.6842491,12.000853 2.496298,11.93591 Z"
     id="path15" />
  <path
     style="fill:#4396ff;fill-opacity:1;stroke-width:0.0289259"
     d="M 4.751687,14.145313 C 4.5598368,14.091465 4.4118541,13.998037 4.2703773,13.841439 4.1208391,13.675918 4.0437834,13.49135 4.0271474,13.25884 c -0.029939,-0.418432 0.107692,-0.625645 1.029471,-1.549948 0.5578683,-0.559396 1.7748588,-1.7196739 1.7889495,-1.705583 0.014217,0.01422 -0.3935227,1.700253 -0.5643357,2.333575 -0.2046331,0.758717 -0.3498493,1.20114 -0.4507771,1.37336 -0.2079725,0.354878 -0.6825518,0.546277 -1.0787681,0.435069 z"
     id="path16" />
  <path
     style="fill:#4396ff;fill-opacity:1;stroke-width:0.0289259"
     d="M 4.6658008,14.100145 C 4.4723732,14.023529 4.2584421,13.830344 4.1497765,13.634162 4.0716749,13.493159 4.0640849,13.455116 4.0640849,13.20466 c 0,-0.322425 0.03696,-0.41322 0.2995052,-0.735748 0.2661842,-0.327 2.4180294,-2.442774 2.450944,-2.409859 0.029107,0.02911 -0.5583782,2.353042 -0.7546952,2.985372 -0.2110489,0.679781 -0.3171972,0.843809 -0.6590003,1.018338 -0.2078038,0.106107 -0.5212828,0.12205 -0.7350378,0.03738 z"
     id="path17" />
  <path
     style="fill:#4396ff;fill-opacity:1;stroke-width:0.0289259"
     d="m 7.836933,14.968436 c -0.4412131,-0.0732 -0.8081163,-0.494043 -0.811468,-0.930756 -0.00283,-0.368257 0.3034136,-1.554037 0.9422508,-3.648454 0.03338,-0.109436 0.036856,-0.100674 0.2696205,0.679758 0.4319499,1.448275 0.6231847,2.171939 0.7158441,2.708872 0.041935,0.243 0.04195,0.28205 1.694e-4,0.446751 -0.1276287,0.503122 -0.6140161,0.827184 -1.1164168,0.743829 z"
     id="path18" />
  <path
     style="fill:#4396ff;fill-opacity:1;stroke-width:0.0289259"
     d="M 10.876128,14.168156 C 10.583908,14.11924 10.298506,13.937114 10.169731,13.717376 10.041954,13.49934 9.8164968,12.75359 9.5206373,11.570348 9.3085357,10.722083 9.1635844,10.083954 9.1751327,10.049308 c 0.023802,-0.071406 2.1873423,2.038584 2.5321513,2.469477 0.218704,0.273306 0.281999,0.454602 0.26103,0.74767 -0.03235,0.452099 -0.356038,0.805025 -0.816389,0.890126 -0.0939,0.01736 -0.178091,0.02979 -0.187101,0.02762 -0.009,-0.0022 -0.04892,-0.0094 -0.0887,-0.01605 z"
     id="path19" />
  <path
     style="fill:#4396ff;fill-opacity:1;stroke-width:0.0289259"
     d="m 12.909612,11.937793 c -0.210516,-0.07537 -0.324744,-0.161115 -0.795997,-0.597487 -0.494221,-0.45764 -2.1498667,-2.1852678 -2.094218,-2.1852678 0.119089,0 2.318283,0.5520163 2.934722,0.7366396 0.747786,0.2239622 0.956783,0.3493402 1.120056,0.6719282 0.07631,0.150767 0.08497,0.195921 0.08487,0.442688 -9.5e-5,0.241481 -0.0094,0.29249 -0.07701,0.420745 -0.2295,0.435577 -0.749588,0.662147 -1.172425,0.510754 z"
     id="path20" />
  <path
     style="fill:#4396ff;fill-opacity:1;stroke-width:0.0289259"
     d="M 13.539469,8.9092429 C 12.750946,8.7387176 10.304331,8.0370978 10.348255,7.9940935 c 0.02975,-0.029122 1.434959,-0.4507322 2.08987,-0.6270294 1.037482,-0.2792829 1.473784,-0.3675366 1.69041,-0.3419308 0.305012,0.036053 0.63895,0.289766 0.777283,0.5905502 0.09509,0.2067592 0.08961,0.5725245 -0.01181,0.7872821 -0.15846,0.3355661 -0.480027,0.5547259 -0.83604,0.5697915 -0.119353,0.00505 -0.308712,-0.018145 -0.518504,-0.063514 z"
     id="path21" />
  <path
     style="fill:#0000c7;fill-opacity:1;stroke-width:0.0289259"
     d="M 7.5496524,9.4073927 C 7.307691,9.324598 7.1329368,9.2200741 6.9745907,9.0634371 6.6182175,8.7109108 6.4579466,8.2367416 6.5369163,7.7685562 6.6326913,7.200738 7.0768789,6.7093655 7.6229784,6.5671247 7.961663,6.4789085 8.3658383,6.5238128 8.6839184,6.6849962 8.8633999,6.7759464 9.1353274,7.0285186 9.2556625,7.2160445 9.782049,8.0363467 9.3478965,9.145857 8.390484,9.427075 8.1574478,9.4955241 7.7814906,9.4867237 7.5496524,9.4073927 Z"
     id="path22" />
</svg>
